<?xml version="1.0" standalone="no"?>
<!DOCTYPE svg PUBLIC "-//W3C//DTD SVG 20010904//EN"
 "http://www.w3.org/TR/2001/REC-SVG-20010904/DTD/svg10.dtd">
<svg version="1.0" xmlns="http://www.w3.org/2000/svg"
 width="935.000000pt" height="211.000000pt" viewBox="0 0 935.000000 211.000000"
 preserveAspectRatio="xMidYMid meet">

<g transform="translate(0.000000,211.000000) scale(0.100000,-0.100000)"
fill="#000000" stroke="none">
<path d="M1052 1433 c92 -2 245 -2 340 0 95 1 20 3 -167 3 -187 0 -265 -2
-173 -3z"/>
<path d="M2603 1433 c15 -2 39 -2 55 0 15 2 2 4 -28 4 -30 0 -43 -2 -27 -4z"/>
<path d="M2813 1433 c43 -2 110 -2 150 0 40 1 5 3 -78 3 -82 0 -115 -2 -72 -3z"/>
<path d="M3122 1433 c37 -2 100 -2 140 0 40 1 10 3 -67 3 -77 0 -110 -1 -73
-3z"/>
<path d="M4698 1433 c12 -2 32 -2 45 0 12 2 2 4 -23 4 -25 0 -35 -2 -22 -4z"/>
<path d="M6268 1433 c128 -2 335 -2 460 0 125 1 20 2 -233 2 -253 0 -355 -1
-227 -2z"/>
<path d="M7008 1433 c7 -3 16 -2 19 1 4 3 -2 6 -13 5 -11 0 -14 -3 -6 -6z"/>
<path d="M8719 1403 c-13 -16 -12 -17 4 -4 16 13 21 21 13 21 -2 0 -10 -8 -17
-17z"/>
<path d="M7815 948 l-70 -73 73 70 c67 64 77 75 69 75 -1 0 -34 -33 -72 -72z"/>
<path d="M4298 703 c12 -2 32 -2 45 0 12 2 2 4 -23 4 -25 0 -35 -2 -22 -4z"/>
<path d="M4413 703 c9 -2 23 -2 30 0 6 3 -1 5 -18 5 -16 0 -22 -2 -12 -5z"/>
<path d="M4468 703 c7 -3 16 -2 19 1 4 3 -2 6 -13 5 -11 0 -14 -3 -6 -6z"/>
<path d="M4598 703 c45 -2 119 -2 165 0 45 1 8 3 -83 3 -91 0 -128 -2 -82 -3z"/>
<path d="M4898 703 c7 -3 16 -2 19 1 4 3 -2 6 -13 5 -11 0 -14 -3 -6 -6z"/>
<path d="M6313 703 c152 -2 402 -2 555 0 152 1 27 2 -278 2 -305 0 -430 -1
-277 -2z"/>
<path d="M7839 523 c-13 -16 -12 -17 4 -4 9 7 17 15 17 17 0 8 -8 3 -21 -13z"/>
<path d="M1173 403 c15 -2 37 -2 50 0 12 2 0 4 -28 4 -27 0 -38 -2 -22 -4z"/>
<path d="M1268 403 c12 -2 30 -2 40 0 9 3 -1 5 -23 4 -22 0 -30 -2 -17 -4z"/>
<path d="M1448 403 c6 -2 18 -2 25 0 6 3 1 5 -13 5 -14 0 -19 -2 -12 -5z"/>
<path d="M2298 403 c12 -2 32 -2 45 0 12 2 2 4 -23 4 -25 0 -35 -2 -22 -4z"/>
<path d="M2413 403 c26 -2 67 -2 90 0 23 2 2 3 -48 3 -49 0 -68 -1 -42 -3z"/>
<path d="M3478 403 c45 -2 119 -2 165 0 45 1 8 3 -83 3 -91 0 -128 -2 -82 -3z"/>
<path d="M4118 403 c89 -2 235 -2 325 0 89 1 16 3 -163 3 -179 0 -252 -2 -162
-3z"/>
<path d="M4618 403 c7 -3 16 -2 19 1 4 3 -2 6 -13 5 -11 0 -14 -3 -6 -6z"/>
<path d="M4698 403 c12 -2 32 -2 45 0 12 2 2 4 -23 4 -25 0 -35 -2 -22 -4z"/>
<path d="M4788 403 c7 -3 16 -2 19 1 4 3 -2 6 -13 5 -11 0 -14 -3 -6 -6z"/>
<path d="M4848 403 c12 -2 30 -2 40 0 9 3 -1 5 -23 4 -22 0 -30 -2 -17 -4z"/>
<path d="M4993 403 c9 -2 25 -2 35 0 9 3 1 5 -18 5 -19 0 -27 -2 -17 -5z"/>
<path d="M5958 403 c133 -2 351 -2 485 0 133 1 24 2 -243 2 -267 0 -376 -1
-242 -2z"/>
<path d="M6698 403 c6 -2 18 -2 25 0 6 3 1 5 -13 5 -14 0 -19 -2 -12 -5z"/>
<path d="M6783 403 c26 -2 68 -2 95 0 26 2 4 3 -48 3 -52 0 -74 -1 -47 -3z"/>
<path d="M6978 403 c29 -2 74 -2 100 0 26 2 2 3 -53 3 -55 0 -76 -1 -47 -3z"/>
<path d="M7373 403 c15 -2 39 -2 55 0 15 2 2 4 -28 4 -30 0 -43 -2 -27 -4z"/>
<path d="M7498 403 c23 -2 59 -2 80 0 20 2 1 4 -43 4 -44 0 -61 -2 -37 -4z"/>
<path d="M8708 403 c18 -2 45 -2 60 0 15 2 0 4 -33 4 -33 0 -45 -2 -27 -4z"/>
<path d="M8848 403 c7 -3 16 -2 19 1 4 3 -2 6 -13 5 -11 0 -14 -3 -6 -6z"/>
</g>
</svg>
